<?xml version="1.0" encoding="UTF-8" standalone="no"?>
<!-- Created with Inkscape (http://www.inkscape.org/) -->

<svg
   version="1.1"
   id="svg2"
   width="953"
   height="327"
   viewBox="0 0 953 327"
   xmlns="http://www.w3.org/2000/svg"
   xmlns:svg="http://www.w3.org/2000/svg">
  <defs
     id="defs6">
    <clipPath
       clipPathUnits="userSpaceOnUse"
       id="clipPath18">
      <path
         d="M 0,1080 H 1080 V 0 H 0 Z"
         id="path16" />
    </clipPath>
  </defs>
  <g
     id="g10"
     transform="matrix(1.3333333,0,0,-1.3333333,-223,884)">
    <g
       id="g12">
      <g
         id="g14"
         clip-path="url(#clipPath18)">
        <g
           id="g20"
           transform="translate(482.2182,561.1077)">
          <path
             d="m 0,0 c 4.992,0 9.135,1.729 12.428,5.192 3.29,3.46 4.937,7.746 4.937,12.853 0,5.22 -1.647,9.534 -4.937,12.938 C 9.135,34.389 4.992,36.091 0,36.091 H -20.939 V 0 Z m 0,58.053 c 11.462,0 21.109,-3.861 28.941,-11.577 C 36.772,38.757 40.688,29.281 40.688,18.045 40.688,6.81 36.772,-2.668 28.941,-10.385 21.109,-18.104 11.462,-21.961 0,-21.961 h -20.939 v -39.156 h -23.495 v 119.17 z"
             style="fill:#0d0106;fill-opacity:1;fill-rule:nonzero;stroke:none"
             id="path22" />
        </g>
        <g
           id="g24"
           transform="translate(552.3588,525.2717)">
          <path
             d="m 0,0 c 4.426,-4.485 10.043,-6.725 16.854,-6.725 6.808,0 12.453,2.24 16.937,6.725 4.482,4.481 6.725,10.241 6.725,17.279 0,7.035 -2.243,12.795 -6.725,17.28 -4.484,4.482 -10.129,6.724 -16.937,6.724 C 10.043,41.283 4.426,39.041 0,34.559 -4.427,30.074 -6.64,24.314 -6.64,17.279 -6.64,10.241 -4.427,4.481 0,0 M 40.516,59.84 H 62.477 V -25.281 H 40.516 v 10.044 c -6.582,-8.286 -15.832,-12.428 -27.748,-12.428 -11.352,0 -21.083,4.342 -29.197,13.024 -8.116,8.682 -12.172,19.323 -12.172,31.92 0,12.598 4.056,23.239 12.172,31.92 8.114,8.683 17.845,13.024 29.197,13.024 11.916,0 21.166,-4.144 27.748,-12.427 z"
             style="fill:#0d0106;fill-opacity:1;fill-rule:nonzero;stroke:none"
             id="path26" />
        </g>
        <g
           id="g28"
           transform="translate(687.3588,585.1116)">
          <path
             d="M 0,0 H 24.174 L -8.172,-85.121 H -33.197 L -65.543,0 h 24.174 l 20.633,-59.571 z"
             style="fill:#0d0106;fill-opacity:1;fill-rule:nonzero;stroke:none"
             id="path30" />
        </g>
        <path
           d="M 718.679,624.267 H 740.64 V 499.991 h -21.961 z"
           style="fill:#0d0106;fill-opacity:1;fill-rule:nonzero;stroke:none"
           id="path32" />
        <path
           d="m 757.324,585.112 h 21.961 v -85.121 h -21.961 z m 10.896,10.214 c -3.635,0 -6.783,1.332 -9.449,4 -2.668,2.666 -4,5.816 -4,9.45 0,3.63 1.332,6.809 4,9.533 2.666,2.723 5.814,4.086 9.449,4.086 3.744,0 6.951,-1.363 9.619,-4.086 2.664,-2.724 4,-5.903 4,-9.533 0,-3.634 -1.336,-6.784 -4,-9.45 -2.668,-2.668 -5.875,-4 -9.619,-4"
           style="fill:#0d0106;fill-opacity:1;fill-rule:nonzero;stroke:none"
           id="path34" />
        <g
           id="g36"
           transform="translate(836.4858,497.6067)">
          <path
             d="m 0,0 c -12.826,0 -23.523,4.312 -32.092,12.938 -8.57,8.624 -12.851,19.294 -12.851,32.006 0,12.71 4.281,23.379 12.851,32.006 8.569,8.623 19.266,12.938 32.092,12.938 8.283,0 15.832,-1.987 22.641,-5.958 6.81,-3.974 11.972,-9.308 15.492,-16.003 L 19.236,56.861 c -1.701,3.517 -4.285,6.299 -7.746,8.342 -3.463,2.043 -7.349,3.065 -11.66,3.065 -6.584,0 -12.031,-2.187 -16.344,-6.555 -4.314,-4.37 -6.468,-9.959 -6.468,-16.769 0,-6.698 2.154,-12.23 6.468,-16.598 4.313,-4.37 9.76,-6.555 16.344,-6.555 4.426,0 8.367,0.992 11.83,2.98 3.461,1.984 6.045,4.737 7.746,8.256 L 38.475,22.132 C 34.729,15.434 29.451,10.071 22.641,6.044 15.832,2.017 8.283,0 0,0"
             style="fill:#0d0106;fill-opacity:1;fill-rule:nonzero;stroke:none"
             id="path38" />
        </g>
        <g
           id="g40"
           transform="translate(445.0941,454.8391)">
          <path
             d="M 0,0 C 1.326,0 2.395,0.147 3.204,0.441 3.888,0.695 4.399,1.103 4.741,1.662 5.083,2.222 5.261,2.99 5.277,3.967 5.277,5.143 4.916,6.04 4.193,6.659 3.765,7.049 3.232,7.366 2.597,7.612 2.231,7.763 1.577,7.985 0.632,8.279 0.346,8.358 0.198,8.402 0.19,8.41 -0.636,8.664 -1.306,8.883 -1.822,9.065 -2.458,9.296 -3.03,9.53 -3.538,9.769 c -0.619,0.294 -1.111,0.571 -1.477,0.834 -0.953,0.706 -1.616,1.476 -1.99,2.31 -0.452,1.025 -0.678,2.232 -0.678,3.621 0,2.272 0.543,4.027 1.631,5.266 0.517,0.588 1.184,1.068 2.002,1.441 1.509,0.699 3.562,1.048 6.158,1.048 2.541,0 5.095,-0.262 7.661,-0.786 l -0.43,-3.729 c -2.43,0.366 -4.403,0.548 -5.92,0.548 -0.404,0 -0.688,-0.004 -0.846,-0.011 -0.23,0 -0.528,-0.012 -0.893,-0.036 -0.612,-0.04 -1.224,-0.13 -1.835,-0.274 -0.555,-0.119 -1.084,-0.35 -1.584,-0.69 -0.739,-0.501 -1.108,-1.255 -1.108,-2.264 0,-1.334 0.401,-2.323 1.203,-2.966 0.532,-0.421 1.461,-0.818 2.788,-1.191 0.31,-0.088 0.643,-0.179 1.001,-0.275 L 2.704,12.461 C 4.793,11.896 6.405,11.21 7.54,10.399 8.485,9.725 9.175,8.891 9.607,7.898 10.04,6.905 10.265,5.643 10.28,4.11 10.28,1.172 9.396,-0.937 7.624,-2.215 5.94,-3.431 3.438,-4.038 0.119,-4.038 c -2.637,0 -5.218,0.263 -7.743,0.786 l 0.465,3.836 C -4.459,0.195 -2.073,0 0,0"
             style="fill:#828181;fill-opacity:1;fill-rule:nonzero;stroke:none"
             id="path42" />
        </g>
        <g
           id="g44"
           transform="translate(464.7768,464.9651)">
          <path
             d="m 0,0 c 0,-2.494 0.091,-4.297 0.273,-5.408 0.302,-1.803 0.954,-3.077 1.954,-3.824 0.906,-0.667 2.184,-1 3.835,-1 2.233,0 3.809,0.638 4.73,1.918 0.698,0.96 1.12,2.493 1.263,4.597 0.055,0.779 0.084,2.018 0.084,3.717 0,2.493 -0.092,4.3 -0.275,5.42 -0.301,1.795 -0.957,3.069 -1.966,3.824 -0.913,0.667 -2.191,1 -3.836,1 -2.23,0 -3.807,-0.639 -4.728,-1.918 C 0.643,7.365 0.227,5.833 0.083,3.729 0.027,2.95 0,1.707 0,0 M 16.82,4.538 C 16.971,3.275 17.046,1.763 17.046,0 c 0,-1.755 -0.075,-3.272 -0.226,-4.551 -0.143,-1.326 -0.385,-2.521 -0.726,-3.585 -0.501,-1.589 -1.254,-2.838 -2.258,-3.747 -1.005,-0.909 -2.337,-1.555 -3.996,-1.935 -1.105,-0.231 -2.363,-0.346 -3.778,-0.346 -2.85,0 -5.07,0.48 -6.658,1.441 -0.818,0.509 -1.501,1.128 -2.049,1.859 -1.064,1.437 -1.755,3.542 -2.073,6.313 -0.142,1.311 -0.214,2.827 -0.214,4.551 0,3.398 0.318,6.106 0.953,8.124 0.349,1.104 0.793,2.013 1.334,2.728 1.127,1.517 2.768,2.505 4.92,2.966 1.112,0.23 2.374,0.345 3.787,0.345 2.868,0 5.084,-0.484 6.648,-1.453 0.817,-0.492 1.501,-1.111 2.049,-1.858 1.072,-1.414 1.759,-3.518 2.061,-6.314"
             style="fill:#828181;fill-opacity:1;fill-rule:nonzero;stroke:none"
             id="path46" />
        </g>
        <g
           id="g48"
           transform="translate(492.2494,463.3215)">
          <path
             d="M 0,0 V -12.234 H -4.836 V 9.041 c 0,2.645 0.842,4.455 2.525,5.432 1.088,0.635 2.736,0.997 4.944,1.084 0.523,0.024 1.195,0.036 2.013,0.036 2.263,0 4.706,-0.064 7.327,-0.191 V 11.721 H 4.527 C 2.685,11.745 1.445,11.471 0.811,10.899 0.619,10.717 0.457,10.45 0.322,10.102 0.107,9.521 0,8.628 0,7.421 V 3.775 H 11.436 V 0 Z"
             style="fill:#828181;fill-opacity:1;fill-rule:nonzero;stroke:none"
             id="path50" />
        </g>
        <g
           id="g52"
           transform="translate(507.7162,474.9954)">
          <path
             d="M 0,0 V 3.848 H 18.964 V 0 H 11.9 V -23.908 H 7.039 V 0 Z"
             style="fill:#828181;fill-opacity:1;fill-rule:nonzero;stroke:none"
             id="path54" />
        </g>
        <g
           id="g56"
           transform="translate(530.2446,478.843)">
          <path
             d="m 0,0 h 4.872 l 4.24,-22.467 h 0.025 l 3.979,16.058 c 0.285,1.128 0.708,1.952 1.268,2.471 0.56,0.521 1.289,0.781 2.185,0.781 0.899,0 1.625,-0.26 2.181,-0.781 0.556,-0.519 0.973,-1.347 1.251,-2.483 l 3.871,-16.022 h 0.024 L 28.185,0 h 4.728 l -5.252,-24.575 c -0.494,-2.312 -1.68,-3.467 -3.562,-3.467 -0.946,0 -1.719,0.28 -2.323,0.84 -0.604,0.56 -1.056,1.431 -1.359,2.615 L 16.45,-8.648 12.521,-24.587 c -0.288,-1.184 -0.734,-2.055 -1.341,-2.615 -0.608,-0.56 -1.384,-0.84 -2.329,-0.84 -1.89,0 -3.081,1.151 -3.574,3.455 z"
             style="fill:#828181;fill-opacity:1;fill-rule:nonzero;stroke:none"
             id="path58" />
        </g>
        <g
           id="g60"
           transform="translate(576.2416,474.6731)">
          <path
             d="M 0,0 -3.932,-12.556 H 3.99 Z m -5.074,-16.212 -2.311,-7.374 h -4.98 l 8.41,24.73 c 0.754,2.208 2.144,3.311 4.17,3.311 2.025,0 3.406,-1.103 4.144,-3.311 l 8.28,-24.73 H 7.492 l -2.346,7.374 z"
             style="fill:#828181;fill-opacity:1;fill-rule:nonzero;stroke:none"
             id="path62" />
        </g>
        <g
           id="g64"
           transform="translate(597.7827,475.1497)">
          <path
             d="m 0,0 v -9.339 c 0.953,-0.119 2.295,-0.179 4.027,-0.179 1.047,0 1.934,0.076 2.657,0.227 0.722,0.15 1.361,0.4 1.918,0.75 1.111,0.715 1.668,2.041 1.668,3.979 0,1.747 -0.461,2.99 -1.383,3.728 C 7.965,-0.095 6.393,0.274 4.17,0.274 2.787,0.274 1.398,0.183 0,0 M 0,-13.139 V -24.062 H -4.836 V 3.252 c 2.645,0.484 5.598,0.727 8.863,0.727 0.977,0 1.815,-0.028 2.514,-0.083 C 7.303,3.832 8.068,3.725 8.84,3.574 9.625,3.415 10.316,3.2 10.912,2.931 c 1.373,-0.604 2.383,-1.465 3.026,-2.585 0.753,-1.263 1.13,-2.903 1.13,-4.92 0,-2.478 -0.527,-4.372 -1.584,-5.682 -0.984,-1.223 -2.382,-2.065 -4.193,-2.525 l 6.492,-11.281 H 10.15 l -5.896,10.78 c -1.201,0 -2.617,0.048 -4.254,0.143"
             style="fill:#828181;fill-opacity:1;fill-rule:nonzero;stroke:none"
             id="path66" />
        </g>
        <g
           id="g68"
           transform="translate(634.7983,478.7239)">
          <path
             d="m 0,0 v -3.682 h -7.445 c -1.842,0.025 -3.082,-0.25 -3.717,-0.821 -0.192,-0.183 -0.354,-0.449 -0.488,-0.798 -0.215,-0.58 -0.323,-1.473 -0.323,-2.68 v -3.646 h 11.436 v -3.775 h -11.436 v -4.134 c 0,-0.572 0.02,-1.088 0.061,-1.549 0.103,-0.905 0.353,-1.549 0.75,-1.93 0.635,-0.572 1.875,-0.845 3.717,-0.822 H 0 v -3.681 c -2.621,-0.127 -5.062,-0.19 -7.326,-0.19 -2.24,0 -3.893,0.123 -4.955,0.369 -1.891,0.413 -3.178,1.326 -3.86,2.74 -0.445,0.929 -0.668,2.077 -0.668,3.443 v 14.795 c 0,2.644 0.842,4.455 2.526,5.431 1.088,0.636 2.736,0.997 4.943,1.084 0.526,0.025 1.195,0.036 2.014,0.036 C -5.062,0.19 -2.621,0.127 0,0"
             style="fill:#828181;fill-opacity:1;fill-rule:nonzero;stroke:none"
             id="path70" />
        </g>
        <g
           id="g72"
           transform="translate(668.5541,478.3665)">
          <path
             d="m 0,0 -0.43,-3.681 c -1.929,0.302 -3.748,0.452 -5.455,0.452 -2.828,0 -4.804,-0.659 -5.933,-1.977 -0.809,-0.937 -1.303,-2.362 -1.477,-4.276 -0.072,-0.827 -0.107,-2.132 -0.107,-3.919 0,-2.287 0.076,-3.908 0.226,-4.861 0.278,-1.779 0.918,-3.077 1.918,-3.895 1.16,-0.946 2.949,-1.417 5.373,-1.417 1.707,0 3.526,0.15 5.455,0.452 L 0,-26.803 c -2.041,-0.508 -4.365,-0.762 -6.969,-0.762 -2.279,0 -4.162,0.274 -5.646,0.822 -1.487,0.548 -2.645,1.405 -3.479,2.573 -0.834,1.167 -1.426,2.633 -1.775,4.396 -0.326,1.754 -0.488,3.878 -0.488,6.373 0,1.508 0.05,2.806 0.154,3.895 0.223,2.509 0.707,4.451 1.453,5.825 0.857,1.58 2.033,2.7 3.527,3.359 1.627,0.722 3.711,1.084 6.254,1.084 C -4.365,0.762 -2.041,0.508 0,0"
             style="fill:#828181;fill-opacity:1;fill-rule:nonzero;stroke:none"
             id="path74" />
        </g>
        <g
           id="g76"
           transform="translate(677.062,464.9651)">
          <path
             d="m 0,0 c 0,-2.494 0.092,-4.297 0.273,-5.408 0.303,-1.803 0.954,-3.077 1.956,-3.824 0.904,-0.667 2.183,-1 3.835,-1 2.231,0 3.807,0.638 4.729,1.918 0.699,0.96 1.119,2.493 1.262,4.597 0.056,0.779 0.084,2.018 0.084,3.717 0,2.493 -0.092,4.3 -0.274,5.42 -0.302,1.795 -0.957,3.069 -1.967,3.824 -0.912,0.667 -2.191,1 -3.834,1 -2.232,0 -3.808,-0.639 -4.73,-1.918 C 0.643,7.365 0.227,5.833 0.084,3.729 0.027,2.95 0,1.707 0,0 M 16.82,4.538 C 16.971,3.275 17.047,1.763 17.047,0 c 0,-1.755 -0.076,-3.272 -0.227,-4.551 -0.142,-1.326 -0.384,-2.521 -0.726,-3.585 -0.5,-1.589 -1.254,-2.838 -2.258,-3.747 -1.004,-0.909 -2.336,-1.555 -3.996,-1.935 -1.104,-0.231 -2.363,-0.346 -3.776,-0.346 -2.851,0 -5.072,0.48 -6.66,1.441 -0.818,0.509 -1.5,1.128 -2.049,1.859 -1.064,1.437 -1.755,3.542 -2.072,6.313 -0.142,1.311 -0.215,2.827 -0.215,4.551 0,3.398 0.319,6.106 0.953,8.124 0.35,1.104 0.795,2.013 1.334,2.728 1.127,1.517 2.768,2.505 4.92,2.966 1.112,0.23 2.375,0.345 3.789,0.345 2.866,0 5.082,-0.484 6.647,-1.453 0.818,-0.492 1.5,-1.111 2.049,-1.858 1.072,-1.414 1.758,-3.518 2.06,-6.314"
             style="fill:#828181;fill-opacity:1;fill-rule:nonzero;stroke:none"
             id="path78" />
        </g>
        <g
           id="g80"
           transform="translate(707.0483,476.0315)">
          <path
             d="M 0,0 10.031,-18.917 V 2.812 h 4.324 v -24.516 c 0,-2.351 -0.994,-3.526 -2.978,-3.526 -0.922,0 -1.719,0.238 -2.395,0.714 -0.668,0.477 -1.298,1.279 -1.894,2.407 L -2.93,-3.145 v -21.799 h -4.324 v 24.527 c 0,2.343 0.992,3.514 2.979,3.514 0.896,0 1.689,-0.244 2.375,-0.733 C -1.213,1.876 -0.58,1.088 0,0"
             style="fill:#828181;fill-opacity:1;fill-rule:nonzero;stroke:none"
             id="path82" />
        </g>
        <g
           id="g84"
           transform="translate(734.3549,454.8391)">
          <path
             d="M 0,0 C 1.326,0 2.395,0.147 3.205,0.441 3.887,0.695 4.4,1.103 4.742,1.662 5.082,2.222 5.262,2.99 5.277,3.967 5.277,5.143 4.916,6.04 4.193,6.659 3.764,7.049 3.232,7.366 2.598,7.612 2.232,7.763 1.576,7.985 0.631,8.279 0.346,8.358 0.199,8.402 0.191,8.41 -0.635,8.664 -1.307,8.883 -1.822,9.065 -2.457,9.296 -3.029,9.53 -3.537,9.769 c -0.619,0.294 -1.113,0.571 -1.479,0.834 -0.953,0.706 -1.615,1.476 -1.988,2.31 -0.453,1.025 -0.68,2.232 -0.68,3.621 0,2.272 0.545,4.027 1.633,5.266 0.516,0.588 1.184,1.068 2,1.441 1.51,0.699 3.563,1.048 6.16,1.048 2.541,0 5.094,-0.262 7.659,-0.786 L 9.34,19.774 c -2.43,0.366 -4.404,0.548 -5.92,0.548 -0.406,0 -0.688,-0.004 -0.846,-0.011 -0.23,0 -0.529,-0.012 -0.894,-0.036 -0.612,-0.04 -1.223,-0.13 -1.834,-0.274 -0.557,-0.119 -1.084,-0.35 -1.584,-0.69 -0.741,-0.501 -1.11,-1.255 -1.11,-2.264 0,-1.334 0.403,-2.323 1.203,-2.966 0.534,-0.421 1.463,-0.818 2.79,-1.191 0.308,-0.088 0.642,-0.179 1,-0.275 l 0.56,-0.154 C 4.793,11.896 6.404,11.21 7.541,10.399 8.486,9.725 9.174,8.891 9.607,7.898 10.041,6.905 10.264,5.643 10.281,4.11 10.281,1.172 9.395,-0.937 7.625,-2.215 5.939,-3.431 3.439,-4.038 0.119,-4.038 c -2.637,0 -5.217,0.263 -7.742,0.786 l 0.465,3.836 C -4.459,0.195 -2.072,0 0,0"
             style="fill:#828181;fill-opacity:1;fill-rule:nonzero;stroke:none"
             id="path86" />
        </g>
        <g
           id="g88"
           transform="translate(749.5366,478.843)">
          <path
             d="m 0,0 h 4.775 v -18.846 c 0,-1.858 0.418,-3.188 1.252,-3.99 0.842,-0.803 2.264,-1.203 4.264,-1.203 2.002,0 3.424,0.4 4.266,1.203 0.834,0.802 1.25,2.132 1.25,3.99 V 0 h 4.777 v -18.536 c 0.031,-3.502 -0.902,-6.027 -2.799,-7.576 -0.588,-0.485 -1.275,-0.866 -2.062,-1.144 -1.485,-0.523 -3.295,-0.786 -5.432,-0.786 -1.111,0 -2.088,0.063 -2.93,0.19 -1.961,0.271 -3.482,0.85 -4.562,1.74 -1.899,1.549 -2.832,4.074 -2.799,7.576 z"
             style="fill:#828181;fill-opacity:1;fill-rule:nonzero;stroke:none"
             id="path90" />
        </g>
        <g
           id="g92"
           transform="translate(776.3061,478.843)">
          <path
             d="m 0,0 h 4.848 v -19.655 c 0,-0.573 0.021,-1.088 0.06,-1.549 0.104,-0.905 0.354,-1.549 0.75,-1.93 0.635,-0.572 1.875,-0.845 3.717,-0.822 h 6.969 v -3.704 c -2.828,-0.111 -5.115,-0.167 -6.862,-0.167 -2.24,0 -3.89,0.123 -4.955,0.369 -1.89,0.413 -3.177,1.326 -3.859,2.74 C 0.223,-23.789 0,-22.642 0,-21.275 Z"
             style="fill:#828181;fill-opacity:1;fill-rule:nonzero;stroke:none"
             id="path94" />
        </g>
        <g
           id="g96"
           transform="translate(792.0815,474.9954)">
          <path
             d="M 0,0 V 3.848 H 18.965 V 0 H 11.9 V -23.908 H 7.039 V 0 Z"
             style="fill:#828181;fill-opacity:1;fill-rule:nonzero;stroke:none"
             id="path98" />
        </g>
        <path
           d="m 820.292,451.087 h -4.859 v 27.756 h 4.859 z"
           style="fill:#828181;fill-opacity:1;fill-rule:nonzero;stroke:none"
           id="path100" />
        <g
           id="g102"
           transform="translate(833.9487,476.0315)">
          <path
             d="M 0,0 10.029,-18.917 V 2.812 h 4.325 v -24.516 c 0,-2.351 -0.993,-3.526 -2.979,-3.526 -0.92,0 -1.719,0.238 -2.395,0.714 -0.666,0.477 -1.296,1.279 -1.892,2.407 l -10.02,18.964 v -21.799 h -4.324 v 24.527 c 0,2.343 0.994,3.514 2.979,3.514 0.898,0 1.689,-0.244 2.377,-0.733 C -1.213,1.876 -0.58,1.088 0,0"
             style="fill:#828181;fill-opacity:1;fill-rule:nonzero;stroke:none"
             id="path104" />
        </g>
        <g
           id="g106"
           transform="translate(873.976,478.3782)">
          <path
             d="m 0,0 -0.416,-3.705 c -2.113,0.31 -4.494,0.465 -7.146,0.465 -2.829,0 -4.807,-0.659 -5.934,-1.978 -0.811,-0.936 -1.303,-2.362 -1.477,-4.276 -0.072,-0.826 -0.107,-2.132 -0.107,-3.919 0,-2.295 0.076,-3.911 0.226,-4.849 0.278,-1.795 0.92,-3.101 1.93,-3.919 1.151,-0.937 2.938,-1.405 5.362,-1.405 1.181,0 2.06,0.143 2.63,0.429 0.239,0.127 0.426,0.305 0.561,0.536 0.119,0.229 0.197,0.446 0.232,0.648 0.035,0.203 0.053,0.484 0.053,0.84 v 5.337 H -8.85 v 3.705 h 9.541 v -10.388 c 0,-1 -0.181,-1.858 -0.546,-2.573 -0.303,-0.595 -0.827,-1.103 -1.573,-1.524 -0.509,-0.302 -1.306,-0.548 -2.394,-0.738 -0.446,-0.081 -0.938,-0.136 -1.479,-0.167 -0.588,-0.04 -1.119,-0.064 -1.595,-0.072 -0.651,-0.016 -1.235,-0.024 -1.752,-0.024 -3.868,0 -6.639,0.826 -8.315,2.477 -1.15,1.152 -1.953,2.677 -2.406,4.576 -0.443,1.881 -0.666,4.252 -0.666,7.111 0,2.533 0.162,4.67 0.488,6.408 0.35,1.772 0.945,3.24 1.787,4.408 0.85,1.152 2.008,1.995 3.479,2.532 1.468,0.536 3.345,0.807 5.633,0.815 C -5.416,0.75 -2.533,0.5 0,0"
             style="fill:#828181;fill-opacity:1;fill-rule:nonzero;stroke:none"
             id="path108" />
        </g>
        <g
           id="g110"
           transform="translate(372.3611,543.7017)">
          <path
             d="m 0,0 -85.567,-85.567 -15.273,15.274 80.32,80.32 -16.61,16.61 -96.93,-96.93 48.486,-48.487 L 33.206,0 -24.741,57.947 -41.344,41.344 Z"
             style="fill:#ff331f;fill-opacity:1;fill-rule:nonzero;stroke:none"
             id="path112" />
        </g>
        <g
           id="g114"
           transform="translate(277.588,638.475)">
          <path
             d="m 0,0 -102.177,-102.177 57.954,-57.954 16.61,16.61 -41.344,41.344 85.567,85.567 15.273,-15.273 -80.32,-80.32 16.603,-16.603 80.32,80.32 16.603,16.603 -48.486,48.486 z"
             style="fill:#ff331f;fill-opacity:1;fill-rule:nonzero;stroke:none"
             id="path116" />
        </g>
      </g>
    </g>
  </g>
</svg>
